<svg width="22" height="22" viewBox="0 0 22 22" fill="none" xmlns="http://www.w3.org/2000/svg">
<path d="M22 11C22 17.0751 17.0751 22 11 22C4.92487 22 0 17.0751 0 11C0 4.92487 4.92487 0 11 0C17.0751 0 22 4.92487 22 11ZM2.00683 11C2.00683 15.9668 6.03321 19.9932 11 19.9932C15.9668 19.9932 19.9932 15.9668 19.9932 11C19.9932 6.03321 15.9668 2.00683 11 2.00683C6.03321 2.00683 2.00683 6.03321 2.00683 11Z" fill="#484545"/>
<path d="M11 4C10.4477 4 10 4.44771 10 5V11.4667C10 11.4667 10 11.7274 10.1267 11.9235C10.2115 12.0898 10.3437 12.2343 10.5174 12.3346L15.1372 15.0019C15.6155 15.278 16.2271 15.1141 16.5032 14.6358C16.7793 14.1575 16.6155 13.5459 16.1372 13.2698L12 10.8812V5C12 4.44772 11.5523 4 11 4Z" fill="#484545"/>
</svg>
